<?xml version="1.0" encoding="UTF-8" standalone="no"?>
<!-- Created with Inkscape (http://www.inkscape.org/) -->

<svg
   xmlns:dc="http://purl.org/dc/elements/1.1/"
   xmlns:cc="http://creativecommons.org/ns#"
   xmlns:rdf="http://www.w3.org/1999/02/22-rdf-syntax-ns#"
   xmlns:svg="http://www.w3.org/2000/svg"
   xmlns="http://www.w3.org/2000/svg"
   xmlns:sodipodi="http://sodipodi.sourceforge.net/DTD/sodipodi-0.dtd"
   xmlns:inkscape="http://www.inkscape.org/namespaces/inkscape"
   version="1.1"
   id="svg4504"
   xml:space="preserve"
   width="793.33331"
   height="1121.3333"
   viewBox="0 0 793.33331 1121.3333"
   sodipodi:docname="005-chaos-west-siegen.svg"
   inkscape:version="0.92.1 r15371"><metadata
     id="metadata4510"><rdf:RDF><cc:Work
         rdf:about=""><dc:format>image/svg+xml</dc:format><dc:type
           rdf:resource="http://purl.org/dc/dcmitype/StillImage" /><dc:title></dc:title></cc:Work></rdf:RDF></metadata><defs
     id="defs4508" /><sodipodi:namedview
     pagecolor="#ffffff"
     bordercolor="#666666"
     borderopacity="1"
     objecttolerance="10"
     gridtolerance="10"
     guidetolerance="10"
     inkscape:pageopacity="0"
     inkscape:pageshadow="2"
     inkscape:window-width="1916"
     inkscape:window-height="1041"
     id="namedview4506"
     showgrid="false"
     inkscape:zoom="0.70710678"
     inkscape:cx="398.72723"
     inkscape:cy="612.85889"
     inkscape:window-x="0"
     inkscape:window-y="18"
     inkscape:window-maximized="0"
     inkscape:current-layer="g4512"
     showguides="true"
     inkscape:guide-bbox="true"
     inkscape:measure-start="150.891,497.375"
     inkscape:measure-end="188.08,432.953" /><g
     id="g4512"
     inkscape:groupmode="layer"
     inkscape:label="Chaosknoten-4.0"
     transform="matrix(1.3333333,0,0,-1.3333333,0,1121.3333)"><path
       style="fill:#231f20;fill-opacity:1;fill-rule:nonzero;stroke:none;stroke-width:1.33333325"
       d="m 268.82031,384.41602 c -34.35026,0.009 -23.51013,8.70741 -33.89453,9.25781 -16.33773,0.86653 -50.04223,71.32038 -49.24609,84.08984 0.67749,10.87141 9.14534,36.98481 21.14258,49.14258 -7.05687,-17.07362 -14.37924,-33.36094 -14.08204,-49.33594 0.22907,-12.30986 11.11923,-31.34125 13.41016,-46.31445 2.3156,-15.13547 22.41085,-29.36589 33.10352,-30.33789 17.36304,-6.35103 21.46402,0.36992 39.74414,-0.23633 38.88594,-1.28964 74.40994,0.26114 84.46289,7.29688 10.04733,7.03146 2.48815,27.12497 11.52148,29.5039 l 0.33399,0.0449 c 1.98266,0.0312 10.56938,1.18893 10.70898,-1.99414 1.15187,-26.24306 -8.27445,-41.98041 -14.16992,-42.95508 -30.13808,-6.94069 -69.57689,-8.17544 -103.03516,-8.1621 z"
       transform="matrix(0.75000002,0,0,-0.75000002,0,841)"
       id="path9715" /><path
       style="fill:#231f20;fill-opacity:1;fill-rule:nonzero;stroke:none;stroke-width:1.33333325"
       d="m 206.82227,526.90625 c 2.01326,4.87096 4.01164,9.7962 5.79687,14.80859 3.22427,9.05267 10.53766,14.44434 20.59766,15.30274 1.88191,0.1375 3.78437,0.19303 5.69531,0.21484 -7.08077,-6.59607 -13.75925,-14.87626 -19.76953,-23.89258 -4.37177,-0.12078 -8.52181,-2.58425 -12.32031,-6.43359 z"
       transform="matrix(0.75000002,0,0,-0.75000002,0,841)"
       id="path9713" /><path
       style="fill:#231f20;fill-opacity:1;fill-rule:nonzero;stroke:none;stroke-width:1.33333325"
       d="m 238.91211,557.23242 c 9.70904,9.04443 20.17891,14.9065 30.75977,14.99805 21.65025,0.18733 42.70685,0.31281 74.39843,1.16015 8.25774,10e-6 31.36551,0.006 34.35938,-11.09765 1.996,-7.404 9.28076,-34.10922 6.3125,-42.62695 -2.0832,-5.97814 -12.027,-6.11423 -13.91407,2.0371 -0.76959,3.32427 -0.73988,8.07114 -1.98242,13.65821 -1.46546,6.5908 -4.12668,15.5909 -10.05468,17.95703 -4.32774,1.72733 -25.50694,2.33517 -51.42774,2.45117 -8.77603,0.0334 -28.27734,-0.5332 -28.27734,-0.5332 0.004,-0.0297 -5.04863,0.73261 -7.4668,0.72461 -10.74941,-0.0375 -21.92166,1.39458 -32.70703,1.27148 z"
       transform="matrix(0.75000002,0,0,-0.75000002,0,841)"
       id="path9711" /><path
       style="fill:#231f20;fill-opacity:1;fill-rule:nonzero;stroke:none;stroke-width:1.33333325"
       d="m 311.10547,404.5 c -4.95293,0 -5.65048,37.23771 1.45312,41.66211 36.58622,24.2094 90.41878,-7.40101 116.02813,23.32068 -31.87141,-7.92437 -79.03591,-1.7414 -120.42852,-8.43982 -19.90453,-14.1052 -30.76686,-36.42903 -46.34179,-54.49609 -0.1004,-0.11654 -0.83065,-0.46714 -0.98438,-0.48047 l -12.19531,-0.625 c -1.4872,-0.0765 -2.08628,1.07946 -1.16602,2.25 l 24.14063,30.71484 c 10.74493,10.44667 18.91064,29.02496 33.77344,33.54883 l 0.31445,0.0566 c 53.15226,3.43947 52.53694,2.1931 106.62787,3.75389 8.58107,1.11134 12.78926,2.58346 17.37486,8.88319 -37.74685,-7.13215 -100.97966,-6.85738 -124.29179,-4.10974 -2.85814,0.8092 -4.87849,1.33663 -6.61328,2.03516 -14.53907,5.85347 -47.07296,52.38011 -57.30469,66.66211 -0.81334,1.1352 -0.26372,2.20508 1.13281,2.20508 h 11.25586 c 2.33893,0 16.32229,-19.03665 17.76562,-20.97852 14.66814,-19.73573 29.58416,-41.82389 57.98243,-40.26562 40.38282,0.13891 70.71249,-3.00073 99.4871,6.63903 0,0 -2.01946,1.09458 -33.44999,0.32972 -15.85429,-0.38581 -77.97506,-5.36752 -85.22266,11.68554 -5.49213,12.92254 -3.02148,36.6569 -2.27148,40.81836 0.40959,2.27214 8.46617,2.20468 9.89843,0.92188 6.34174,-5.682 0.36914,-21.73355 2.51367,-30.21875 0.8804,-3.48347 1.33782,-7.94154 5.75196,-8.65821 22.80494,-5.8484 59.20835,-4.67324 90.0789,-2.56408 -1.9564,2.75 -0.18096,7.01022 3.02344,7.89062 27.93786,11.24707 55.73505,-1.51326 78.55078,-16.13086 -14.73053,16.26187 -36.15726,23.82361 -58.77539,24.67188 l -0.16016,0.0137 c -4.38826,0.67507 -10.48863,1.36496 -12.3457,6.19336 -0.12627,0.3284 0.0543,1.21346 0.29883,1.4668 9.06573,9.4016 24.84286,5.68894 36.01953,3.20507 10.84546,-2.51493 30.14505,-14.52163 39.77132,-22.41083 -1.69587,4.06373 -9.50507,13.69226 -11.15413,16.72919 -3.92614,3.4412 -8.1126,6.53029 -12.5254,9.12696 -3.82613,1.59186 -8.77301,3.2735 -15.21874,5.11523 l -0.35938,0.16016 c -8.17507,5.1472 -21.22946,0.58989 -28.9668,7.65429 -0.50333,0.4596 -0.57164,1.37457 -0.14258,1.9043 11.21507,13.85427 28.41433,4.96758 42.0254,2.05078 l 0.36718,-0.13476 v -0.002 c 21.2672,-11.4272 38.12111,-32.06484 43.53711,-55.0039 0.0361,-0.15374 -0.10864,-0.95589 -0.19531,-1.08789 -1.97493,-2.98347 -3.6517,-1.79989 -5.70703,-0.37696 -1.6312,1.12894 -3.12631,2.21962 -4.49805,3.27149 2.37427,-4.11454 4.1338,-8.50081 5.0918,-13.09961 0.18107,-0.86907 -0.38771,-1.6165 -1.27344,-1.67383 -7.69693,-0.49653 1.28539,-6.51785 -0.97461,-12.54492 l -0.16015,-0.30274 c -5.9544,-8.60093 -9.17942,1.93946 -12.54102,4.86719 -2.00653,-5.74253 -3.08946,-12.12763 -5.11133,-17.97656 -1.46226,-4.23013 -7.45465,-16.57227 -13.51172,-16.57227 -1.7652,0 -2.71327,0.98694 -3.26367,2.03321 -0.35293,0.67053 -1.4655,3.0007 -1.11523,3.7207 5.52733,11.36173 10.10813,23.25812 12,36.61719 -0.65067,1.0164 -2.70123,3.59493 -4.19336,3.14453 -3.58827,-17.41773 -13.52375,-32.38824 -22.56055,-47.3457 -0.52773,-0.8736 -6.57418,-5.40659 -7.64258,-6.03125 -5.31386,-3.10667 -11.20472,-0.80113 -9.74218,1.54687 11.51599,18.486 25.4897,36.49558 30.30664,58.22852 l -1.65235,1.65234 -0.14844,0.17578 c -0.1224,0.17133 -0.24711,0.24544 -0.28711,0.27344 -0.57746,-0.1756 -1.31648,-1.16453 -1.67968,-1.64453 -5.52214,-21.1144 -19.98674,-38.91477 -33.33594,-55.60156 -0.23373,-0.292 -3.93486,-2.55248 -4.73633,-3.08594 -6.9004,-4.59187 -10.6192,0.72616 -9.3164,2.33203 12.51653,15.42733 27.18913,32.27286 34.08593,51.16406 -6.0084,-12.8576 -14.56671,-24.90174 -25.46484,-35.52734 l -0.24219,-0.18946 c -46.32453,-28.48346 -51.45641,-8.14427 -103.79374,-17.10974 -6.564,-2.80266 -7.75201,-8.07785 -7.63868,-14.61719 0.0483,-2.79039 2.14054,-21.39062 -1.82226,-21.39062 z"
       transform="matrix(0.75000002,0,0,-0.75000002,0,841)"
       id="path9709"
       inkscape:connector-curvature="0"
       sodipodi:nodetypes="ccccccccccccccccsscccssccccccccccccccccccccccccccccccccscscccccccccccccccccccc" /><path
       style="fill:#231f20;fill-opacity:1;fill-rule:nonzero;stroke:none;stroke-width:1.33333325"
       d="m 521.55351,514.00232 c -0.24891,-0.005 -0.51253,0.006 -0.79101,0.0312 -4.4232,0.402 -21.05957,54.68416 -58.91797,53.1543 -0.78187,-0.0315 -1.44922,0.60991 -1.44922,1.39257 v 3.12696 c 0,0.17266 0.34137,0.9283 0.4707,1.04297 8.9096,7.8816 23.5958,2.62865 32.16406,-1.34961 20.58734,-9.972 30.12735,-30.82493 33.91602,-50.40039 0.012,-0.0584 -0.0412,-0.69791 -0.0625,-0.75391 -1.06475,-2.83887 -5.33008,-9.97856 -5.33008,-6.24414 z"
       transform="matrix(0.75000002,0,0,-0.75000002,0,841)"
       id="path9707" /><path
       style="fill:#231f20;fill-opacity:1;fill-rule:nonzero;stroke:none;stroke-width:1.33333325"
       d="m 515.22929,558.71716 c -1.74971,-0.0254 -4.44824,3.60983 -12.17578,10.69336 -0.5464,0.5008 -0.587,1.42235 -0.0859,1.96875 16.916,18.45387 24.55537,43.29487 17.50977,68.41407 l -0.0508,0.32421 c -0.21053,5.58 -3.58297,10.59151 -7.50391,14.57618 -12.66893,12.874 -8.50166,0.45594 -12.19726,18.97461 -0.9636,4.82826 9.59576,-2.41181 10.47656,-2.86914 l 0.15234,-0.0898 c 16.69574,-11.55853 23.69499,-29.4985 25.60352,-48.16797 1.016,-5.70146 -2.07489,-12.70133 -0.56836,-17.2832 13.05333,3.55453 29.74679,5.24376 42.36133,-1.37891 0.392,-0.20573 0.80051,-1.02231 0.72851,-1.45898 -2.58666,-15.778 -12.88156,-10.71358 -23.02929,-8.83985 -17.9632,3.31654 -27.36534,-9.37255 -34.74414,-23.58789 -3.92627,-7.56333 -4.72685,-11.25004 -6.47657,-11.27539 z"
       transform="matrix(0.75000002,0,0,-0.75000002,0,841)"
       id="path9705" /><path
       style="fill:#231f20;fill-opacity:1;fill-rule:nonzero;stroke:none;stroke-width:1.33333325"
       d="m 493.34062,576.3324 c -2.21856,-0.0187 -5.02344,0.61663 -5.91211,0.8418 -0.57613,0.14599 -4.90134,0.95464 -5.13867,2.4121 -1.84209,11.31604 -7.75068,20.22176 -13.28711,29.03711 v -7.65429 h -16.78125 v 52.5 h 16.78125 v -25.82813 c 0,-4.78125 1,-8.51562 3,-11.20312 2,-2.71875 4.75,-4.07813 8.25,-4.07813 1.43749,0 2.71875,0.3125 3.84375,0.9375 1.125,0.59374 2.01563,1.43749 2.67188,2.53125 2.61543,12.62475 2.35583,24.64793 1.35937,36.92383 -1.09837,13.53145 -6.59748,27.19032 -8.04297,39.92578 -0.31706,17.75293 5.07394,35.2981 21.69141,44.0957 l 0.16211,0.0742 c 5.46386,2.0488 5.52738,-4.05361 5.74804,-7.27734 0.0667,-0.9252 0.87114,-3.45148 0.0137,-4.16602 -10.7304,-8.942 -16.33739,-22.03601 -14.4961,-35.52734 3.37848,-24.75448 11.60679,-43.38499 11.79883,-68.37695 -1.12805,-14.77942 -2.99839,-32.582 -8.84375,-44.19727 -0.3684,-0.71155 -1.48722,-0.95946 -2.81836,-0.9707 z"
       transform="matrix(0.75000002,0,0,-0.75000002,0,841)"
       id="path9703" /><path
       style="fill:#231f20;fill-opacity:1;fill-rule:nonzero;stroke:none;stroke-width:1.33333325"
       d="m 476.63164,665.93787 c -0.14841,0.0124 -0.31349,0.042 -0.49414,0.0898 -5.62587,1.48933 -11.72129,0.2636 -17.46289,0.86133 -12.8648,1.33893 -14.22127,13.55928 -11.05274,13.75781 2.77387,0.17373 28.20185,0.52937 28.69531,-2.74609 1.25675,-8.34138 2.54056,-12.14965 0.31446,-11.96289 z"
       transform="matrix(0.75000002,0,0,-0.75000002,0,841)"
       id="path4516" /><g
       id="g4660"
       transform="matrix(0,2.1054039,-2.1054039,0,1472.0779,-257.59469)"><path
         inkscape:connector-curvature="0"
         id="path4553"
         d="m 336.18624,652.45802 -6.082,-3.512 v -17.562 l 33.461,-19.317 21.293,12.293 v 17.563 l -6.086,3.512 v -17.563 l -15.207,-8.781 -27.379,15.805 z"
         style="fill:#dd4720;fill-opacity:1;fill-rule:nonzero;stroke:none;stroke-width:0.99999994" /><path
         inkscape:connector-curvature="0"
         id="path4555"
         d="m 384.85824,617.33302 v -13.90361 l -5.78543,-3.61386 -0.30057,14.00547 -27.347,15.637 -27.407,-15.637 v -14.05 l -6.082,3.48 v 14.082 l 33.461,19.32 z"
         style="fill:#fab20b;fill-opacity:1;fill-rule:nonzero;stroke:none;stroke-width:0.99999994" /><path
         inkscape:connector-curvature="0"
         id="path4557"
         d="m 357.47224,622.61402 15.218,8.782 v 17.543 l -6.082,3.523 v -17.566 l -15.219,-8.786 z"
         style="fill:#66c53a;fill-opacity:1;fill-rule:nonzero;stroke:none;stroke-width:0.99999994" /></g><path
       inkscape:connector-curvature="0"
       style="fill:#66c53a;fill-opacity:1;fill-rule:nonzero;stroke:none;stroke-width:2.10540366"
       d="m 161.22391,469.41652 7.41734,-12.80506 -18.48757,-31.99162 h -36.98563 l 7.41103,-12.80506 h 36.98353 l 25.86699,44.79668 -14.78835,25.61013 z"
       id="path11690-0" /><g
       aria-label="Siegen"
       transform="matrix(0.75000002,0,0,-0.75000002,78.036517,462.12278)"
       style="font-style:normal;font-weight:normal;font-size:96px;line-height:1.25;font-family:sans-serif;letter-spacing:0px;word-spacing:0px;fill:#231f20;fill-opacity:1;stroke:none"
       id="flowRoot11722"><path
         d="m 96.515625,80.490234 v 14.8125 q -5.765625,-2.578125 -11.25,-3.890625 -5.484375,-1.3125 -10.359375,-1.3125 -6.46875,0 -9.5625,1.78125 -3.09375,1.78125 -3.09375,5.53125 0,2.812501 2.0625,4.406251 2.109375,1.54687 7.59375,2.67187 l 7.6875,1.54688 q 11.671875,2.34375 16.59375,7.125 4.92188,4.78125 4.92188,13.59375 0,11.57812 -6.89063,17.25 -6.84375,5.625 -20.953125,5.625 -6.65625,0 -13.359375,-1.26563 -6.703125,-1.26562 -13.40625,-3.75 v -15.23437 q 6.703125,3.5625 12.9375,5.39062 6.28125,1.78125 12.09375,1.78125 5.90625,0 9.046875,-1.96875 3.140625,-1.96875 3.140625,-5.625 0,-3.28125 -2.15625,-5.0625 -2.109375,-1.78125 -8.484375,-3.1875 l -6.984375,-1.54687 q -10.5,-2.25 -15.375,-7.17188 -4.828125,-4.92187 -4.828125,-13.265621 0,-10.453125 6.75,-16.078125 6.75,-5.625 19.40625,-5.625 5.765625,0 11.859375,0.890625 6.09375,0.84375 12.609375,2.578125 z"
         style="font-style:normal;font-variant:normal;font-weight:bold;font-stretch:normal;font-size:96px;font-family:sans-serif;-inkscape-font-specification:'sans-serif Bold';fill:#231f20;fill-opacity:1"
         id="path11730" /><path
         d="m 116.25,95.771484 h 16.78125 V 148.27148 H 116.25 Z m 0,-20.4375 h 16.78125 v 13.6875 H 116.25 Z"
         style="font-style:normal;font-variant:normal;font-weight:bold;font-stretch:normal;font-size:96px;font-family:sans-serif;-inkscape-font-specification:'sans-serif Bold';fill:#231f20;fill-opacity:1"
         id="path11732" /><path
         d="m 201.65625,121.88086 v 4.78125 h -39.23438 q 0.60938,5.90625 4.26563,8.85937 3.65625,2.95313 10.21875,2.95313 5.29687,0 10.82812,-1.54688 5.57813,-1.59375 11.4375,-4.78125 v 12.9375 q -5.95312,2.25 -11.90625,3.375 -5.95312,1.17188 -11.90625,1.17188 -14.25,0 -22.17187,-7.21875 -7.875,-7.26563 -7.875,-20.34375 0,-12.84375 7.73437,-20.20313 7.78125,-7.359371 21.375,-7.359371 12.375,0 19.78125,7.453121 7.45313,7.45313 7.45313,19.92188 z m -17.25,-5.57813 q 0,-4.78125 -2.8125,-7.6875 -2.76563,-2.95312 -7.26563,-2.95312 -4.875,0 -7.92187,2.76562 -3.04688,2.71875 -3.79688,7.875 z"
         style="font-style:normal;font-variant:normal;font-weight:bold;font-stretch:normal;font-size:96px;font-family:sans-serif;-inkscape-font-specification:'sans-serif Bold';fill:#231f20;fill-opacity:1"
         id="path11734" /><path
         d="m 250.03125,139.36523 q -3.46875,4.59375 -7.64063,6.75 -4.17187,2.15625 -9.65625,2.15625 -9.60937,0 -15.89062,-7.54687 -6.28125,-7.59375 -6.28125,-19.3125 0,-11.76563 6.28125,-19.26563 6.28125,-7.546871 15.89062,-7.546871 5.48438,0 9.65625,2.15625 4.17188,2.15625 7.64063,6.796871 v -7.781246 h 16.875 v 47.203126 q 0,12.65625 -8.01563,19.3125 -7.96875,6.70312 -23.15625,6.70312 -4.92187,0 -9.51562,-0.75 -4.59375,-0.75 -9.23438,-2.29687 v -13.07813 q 4.40625,2.53125 8.625,3.75 4.21875,1.26563 8.48438,1.26563 8.25,0 12.09375,-3.60938 3.84375,-3.60937 3.84375,-11.29687 z m -11.0625,-32.67187 q -5.20313,0 -8.10938,3.84375 -2.90625,3.84375 -2.90625,10.875 0,7.21875 2.8125,10.96875 2.8125,3.70312 8.20313,3.70312 5.25,0 8.15625,-3.84375 2.90625,-3.84375 2.90625,-10.82812 0,-7.03125 -2.90625,-10.875 -2.90625,-3.84375 -8.15625,-3.84375 z"
         style="font-style:normal;font-variant:normal;font-weight:bold;font-stretch:normal;font-size:96px;font-family:sans-serif;-inkscape-font-specification:'sans-serif Bold';fill:#231f20;fill-opacity:1"
         id="path11736" /><path
         d="m 335.53125,121.88086 v 4.78125 h -39.23438 q 0.60938,5.90625 4.26563,8.85937 3.65625,2.95313 10.21875,2.95313 5.29687,0 10.82812,-1.54688 5.57813,-1.59375 11.4375,-4.78125 v 12.9375 q -5.95312,2.25 -11.90625,3.375 -5.95312,1.17188 -11.90625,1.17188 -14.25,0 -22.17187,-7.21875 -7.875,-7.26563 -7.875,-20.34375 0,-12.84375 7.73437,-20.20313 7.78125,-7.359371 21.375,-7.359371 12.375,0 19.78125,7.453121 7.45313,7.45313 7.45313,19.92188 z m -17.25,-5.57813 q 0,-4.78125 -2.8125,-7.6875 -2.76563,-2.95312 -7.26563,-2.95312 -4.875,0 -7.92187,2.76562 -3.04688,2.71875 -3.79688,7.875 z"
         style="font-style:normal;font-variant:normal;font-weight:bold;font-stretch:normal;font-size:96px;font-family:sans-serif;-inkscape-font-specification:'sans-serif Bold';fill:#231f20;fill-opacity:1"
         id="path11738" /></g></g></svg>